<?xml version="1.0" encoding="UTF-8"?>
<svg width="24px" height="24px" viewBox="0 0 24 24" version="1.1" xmlns="http://www.w3.org/2000/svg" xmlns:xlink="http://www.w3.org/1999/xlink">
    <!-- Generator: Sketch 49.1 (51147) - http://www.bohemiancoding.com/sketch -->
    <title>Page 1</title>
    <desc>Created with Sketch.</desc>
    <defs></defs>
    <g id="v3" stroke="none" stroke-width="1" fill="none" fill-rule="evenodd">
        <g id="0-Witeboard" transform="translate(-722.000000, -772.000000)" fill="#222222">
            <g id="Group-12" transform="translate(0.000000, 758.000000)">
                <g id="Group-9" transform="translate(550.000000, 10.000000)">
                    <g id="Group-7" transform="translate(168.000000, 0.000000)">
                        <g id="Page-1" transform="translate(4.000000, 4.000000)">
                            <path d="M5.23136,20.00128 C5.4512,20.20736 5.74624,20.32512 6.0464,20.32512 L12.92736,20.32512 C13.24128,20.32512 13.54624,20.19872 13.7712,19.9776 L23.55872,10.19008 C24.0224,9.7264 24.0224,8.9712 23.55872,8.50752 L15.48736,0.43616 C15.04256,-0.00864 14.24992,-0.00864 13.80512,0.43616 L0.44,13.80512 C0.21504,14.03488 0.08864,14.34368 0.09376,14.66752 C0.09888,14.99136 0.2336,15.29504 0.4688,15.51616 L5.23136,20.00128 Z M8.80736,8.80256 L15.19264,15.18752 L12.43136,17.9488 L6.52,17.9488 L2.99488,14.62496 L8.80736,8.80256 Z" id="Fill-1"></path>
                            <path d="M23.42752,21.51488 L0.57248,21.51488 C0.31008,21.51488 0.09376,21.7312 0.09376,21.9936 L0.09376,23.42368 C0.09376,23.6864 0.30496,23.90112 0.5712,23.90112 L23.43264,23.90112 C23.69504,23.90112 23.91008,23.68992 23.91008,23.42368 L23.91008,21.9936 C23.90624,21.7312 23.69504,21.51488 23.42752,21.51488 Z" id="Fill-2"></path>
                        </g>
                    </g>
                </g>
            </g>
        </g>
    </g>
</svg>