<?xml version="1.0" encoding="UTF-8"?>
<svg width="26px" height="26px" viewBox="0 0 26 26" version="1.1" xmlns="http://www.w3.org/2000/svg" xmlns:xlink="http://www.w3.org/1999/xlink">
    <!-- Generator: Sketch 49.1 (51147) - http://www.bohemiancoding.com/sketch -->
    <title>Page 1</title>
    <desc>Created with Sketch.</desc>
    <defs></defs>
    <g id="v3" stroke="none" stroke-width="1" fill="none" fill-rule="evenodd">
        <g id="0-Witeboard" transform="translate(-553.000000, -772.000000)" fill="#222222">
            <g id="Group-12" transform="translate(0.000000, 758.000000)">
                <g id="Group-9" transform="translate(550.000000, 10.000000)">
                    <g id="Group-7">
                        <path d="M28.22,8.42 L24.58,4.78 C23.54,3.74 21.85,3.74 20.94,4.78 L6.51,19.21 L4.3,25.71 L4.82,26.23 L3,28.18 L4.82,30 L6.64,28.18 L7.29,28.7 L13.92,26.49 L28.22,12.06 C29.26,11.02 29.26,9.46 28.22,8.42 Z M7.29,25.06 L8.2,22.33 L10.8,24.93 L8.07,25.84 L7.29,25.06 Z M13.14,23.5 L9.5,19.86 L22.76,6.6 L26.4,10.24 L13.14,23.5 Z" id="Page-1"></path>
                    </g>
                </g>
            </g>
        </g>
    </g>
</svg>