<?xml version="1.0" encoding="UTF-8"?>
<svg width="24px" height="20px" viewBox="0 0 24 20" version="1.1" xmlns="http://www.w3.org/2000/svg" xmlns:xlink="http://www.w3.org/1999/xlink">
    <!-- Generator: Sketch 49.1 (51147) - http://www.bohemiancoding.com/sketch -->
    <title>Page 1</title>
    <desc>Created with Sketch.</desc>
    <defs></defs>
    <g id="v3" stroke="none" stroke-width="1" fill="none" fill-rule="evenodd">
        <g id="0-Witeboard" transform="translate(-778.000000, -774.000000)" fill="#000000">
            <g id="Group-12" transform="translate(0.000000, 758.000000)">
                <g id="Group-9" transform="translate(550.000000, 10.000000)">
                    <g id="Group-7" transform="translate(224.000000, 0.000000)">
                        <path d="M20.5804779,11.5417974 L10.139933,11.5417974 L14.2939148,8.0610021 L12.2608323,6 L4,12.9166651 L12.2608323,19.8377857 L14.2939148,17.7767836 L10.1697424,14.3264336 L20.5804779,14.3264336 C23.1122637,14.4916554 25.0728367,16.4323612 25.0728367,18.7703418 C25.0728367,21.1098075 23.1122637,23.050142 20.5804779,23.2153638 L16.6528865,23.2153638 L16.6528865,26 L20.5804779,26 C23.2790352,25.8607682 25.7117249,24.45397 27.0193107,22.2741567 C28.3268964,20.0943435 28.3268964,17.4474539 27.0193107,15.2676407 C25.7117249,13.0878274 23.2790352,11.6795441 20.5804779,11.5417974 Z" id="Page-1"></path>
                    </g>
                </g>
            </g>
        </g>
    </g>
</svg>